<svg fill="none" height="224" viewBox="0 0 363 224" width="363" xmlns="http://www.w3.org/2000/svg" xmlns:xlink="http://www.w3.org/1999/xlink"><filter id="a" color-interpolation-filters="sRGB" filterUnits="userSpaceOnUse" height="224" width="363" x="0" y="0"><feFlood flood-opacity="0" result="BackgroundImageFix"/><feColorMatrix in="SourceAlpha" result="hardAlpha" type="matrix" values="0 0 0 0 0 0 0 0 0 0 0 0 0 0 0 0 0 0 127 0"/><feOffset dy="30"/><feGaussianBlur stdDeviation="30"/><feComposite in2="hardAlpha" operator="out"/><feColorMatrix type="matrix" values="0 0 0 0 0 0 0 0 0 0 0 0 0 0 0 0 0 0 0.4 0"/><feBlend in2="BackgroundImageFix" mode="normal" result="effect1_dropShadow_6_18"/><feBlend in="SourceGraphic" in2="effect1_dropShadow_6_18" mode="normal" result="shape"/></filter><g filter="url(#a)"><rect fill="#2c3239" height="104" rx="10" width="243" x="60" y="30"/><path d="m149.094 108c-.161 0-.293-.051-.396-.154-.088-.103-.132-.227-.132-.374v-11.396l-3.344 2.574c-.132.088-.264.1247-.396.11-.132-.0293-.249-.11-.352-.242l-.924-1.188c-.088-.132-.125-.2713-.11-.418.029-.1467.11-.264.242-.352l4.928-3.806c.088-.0733.176-.1173.264-.132s.183-.022.286-.022h1.936c.147 0 .271.0513.374.154s.154.2273.154.374v14.344c0 .147-.051.271-.154.374s-.227.154-.374.154zm11.306.22c-1.042 0-1.929-.154-2.662-.462-.734-.308-1.335-.733-1.804-1.276-.47-.543-.822-1.166-1.056-1.87-.235-.719-.374-1.481-.418-2.288-.015-.396-.03-.829-.044-1.298 0-.484 0-.968 0-1.452.014-.484.029-.9313.044-1.342.029-.8067.168-1.562.418-2.266.249-.7187.608-1.342 1.078-1.87.484-.528 1.092-.946 1.826-1.254.733-.308 1.606-.462 2.618-.462 1.026 0 1.906.154 2.64.462.733.308 1.334.726 1.804 1.254.484.528.843 1.1513 1.078 1.87.249.704.388 1.4593.418 2.266.029.4107.044.858.044 1.342v1.452c0 .469-.015.902-.044 1.298-.03.807-.162 1.569-.396 2.288-.235.704-.587 1.327-1.056 1.87-.47.543-1.078.968-1.826 1.276-.734.308-1.621.462-2.662.462zm0-2.53c.953 0 1.65-.308 2.09-.924.454-.631.689-1.481.704-2.552.029-.425.044-.851.044-1.276 0-.44 0-.88 0-1.32s-.015-.858-.044-1.254c-.015-1.0413-.25-1.8773-.704-2.508-.44-.6453-1.137-.968-2.09-.968-.939 0-1.636.3227-2.09.968-.44.6307-.675 1.4667-.704 2.508 0 .396-.008.814-.022 1.254v1.32c.014.425.022.851.022 1.276.029 1.071.271 1.921.726 2.552.454.616 1.144.924 2.068.924zm14.459 2.53c-1.042 0-1.929-.154-2.662-.462-.734-.308-1.335-.733-1.804-1.276-.47-.543-.822-1.166-1.056-1.87-.235-.719-.374-1.481-.418-2.288-.015-.396-.03-.829-.044-1.298 0-.484 0-.968 0-1.452.014-.484.029-.9313.044-1.342.029-.8067.168-1.562.418-2.266.249-.7187.608-1.342 1.078-1.87.484-.528 1.092-.946 1.826-1.254.733-.308 1.606-.462 2.618-.462 1.026 0 1.906.154 2.64.462.733.308 1.334.726 1.804 1.254.484.528.843 1.1513 1.078 1.87.249.704.388 1.4593.418 2.266.029.4107.044.858.044 1.342v1.452c0 .469-.015.902-.044 1.298-.03.807-.162 1.569-.396 2.288-.235.704-.587 1.327-1.056 1.87-.47.543-1.078.968-1.826 1.276-.734.308-1.621.462-2.662.462zm0-2.53c.953 0 1.65-.308 2.09-.924.454-.631.689-1.481.704-2.552.029-.425.044-.851.044-1.276 0-.44 0-.88 0-1.32s-.015-.858-.044-1.254c-.015-1.0413-.25-1.8773-.704-2.508-.44-.6453-1.137-.968-2.09-.968-.939 0-1.636.3227-2.09.968-.44.6307-.675 1.4667-.704 2.508 0 .396-.008.814-.022 1.254v1.32c.014.425.022.851.022 1.276.029 1.071.271 1.921.726 2.552.454.616 1.144.924 2.068.924zm20.058 2.53c-.851 0-1.562-.147-2.134-.44-.557-.293-1.019-.667-1.386-1.122v.814c0 .147-.051.271-.154.374-.088.103-.213.154-.374.154h-1.738c-.147 0-.271-.051-.374-.154s-.154-.227-.154-.374v-14.564c0-.1467.051-.2713.154-.374s.227-.154.374-.154h1.87c.161 0 .286.0513.374.154.103.1027.154.2273.154.374v4.884c.367-.4253.821-.77 1.364-1.034.557-.2787 1.232-.418 2.024-.418.777 0 1.452.132 2.024.396s1.049.638 1.43 1.122c.396.4693.697 1.0193.902 1.65.205.631.315 1.313.33 2.046.015.264.022.506.022.726 0 .205-.007.44-.022.704-.029.763-.147 1.467-.352 2.112-.205.631-.499 1.181-.88 1.65s-.858.836-1.43 1.1c-.572.249-1.247.374-2.024.374zm-.814-2.354c.631 0 1.122-.132 1.474-.396.352-.279.609-.638.77-1.078s.257-.924.286-1.452c.015-.44.015-.88 0-1.32-.029-.528-.125-1.012-.286-1.452s-.418-.792-.77-1.056c-.352-.2787-.843-.418-1.474-.418-.587 0-1.063.132-1.43.396s-.645.6013-.836 1.012c-.191.396-.293.814-.308 1.254-.015.264-.022.55-.022.858 0 .293.007.572.022.836.029.455.125.902.286 1.342.176.425.447.777.814 1.056.381.279.873.418 1.474.418zm8.52 6.314c-.147 0-.271-.051-.374-.154s-.154-.227-.154-.374v-14.564c0-.1467.051-.2713.154-.374s.227-.154.374-.154h1.738c.161 0 .286.0513.374.154.103.1027.154.2273.154.374v.88c.352-.4693.814-.858 1.386-1.166s1.283-.462 2.134-.462c.777 0 1.452.1247 2.024.374s1.049.6087 1.43 1.078c.381.4547.675.9973.88 1.628.205.631.323 1.327.352 2.09.015.249.022.506.022.77s-.007.528-.022.792c-.015.733-.125 1.415-.33 2.046-.205.616-.506 1.159-.902 1.628-.381.455-.858.814-1.43 1.078s-1.247.396-2.024.396c-.792 0-1.467-.139-2.024-.418-.557-.293-1.012-.675-1.364-1.144v4.994c0 .147-.051.271-.154.374-.088.103-.213.154-.374.154zm4.972-6.314c.631 0 1.122-.132 1.474-.396.352-.279.609-.638.77-1.078s.257-.924.286-1.452c.015-.44.015-.88 0-1.32-.029-.528-.125-1.012-.286-1.452s-.418-.792-.77-1.056c-.352-.2787-.843-.418-1.474-.418-.601 0-1.093.1393-1.474.418-.367.2787-.638.638-.814 1.078-.161.425-.257.865-.286 1.32-.015.264-.022.543-.022.836s.007.579.022.858c.015.44.117.865.308 1.276.191.396.469.726.836.99s.843.396 1.43.396zm8.52 2.134c-.147 0-.272-.051-.374-.154-.103-.103-.154-.227-.154-.374v-10.384c0-.1467.051-.2713.154-.374.102-.1027.227-.154.374-.154h1.716c.146 0 .271.0513.374.154.102.1027.154.2273.154.374v.748c.308-.4107.718-.7553 1.232-1.034.528-.2933 1.151-.4473 1.87-.462 1.672-.0293 2.838.6233 3.498 1.958.337-.5867.821-1.056 1.452-1.408.645-.3667 1.356-.55 2.134-.55.762 0 1.452.176 2.068.528.63.352 1.122.8873 1.474 1.606.366.704.55 1.599.55 2.684v6.314c0 .147-.052.271-.154.374-.103.103-.228.154-.374.154h-1.804c-.147 0-.272-.051-.374-.154-.103-.103-.154-.227-.154-.374v-6.138c0-.66-.096-1.181-.286-1.562-.191-.396-.448-.6747-.77-.836-.323-.1613-.682-.242-1.078-.242-.323 0-.646.0807-.968.242-.323.1613-.587.44-.792.836-.206.381-.308.902-.308 1.562v6.138c0 .147-.052.271-.154.374-.103.103-.228.154-.374.154h-1.804c-.147 0-.272-.051-.374-.154-.103-.103-.154-.227-.154-.374v-6.138c0-.66-.103-1.181-.308-1.562-.206-.396-.47-.6747-.792-.836-.323-.1613-.668-.242-1.034-.242-.338 0-.668.088-.99.264-.323.1613-.587.4327-.792.814-.206.381-.308.902-.308 1.562v6.138c0 .147-.052.271-.154.374-.103.103-.228.154-.374.154z" fill="#fff"/><path d="m152.774 58.3c-.36-.192-.744-.342-1.152-.45-.408-.12-.798-.204-1.17-.252-.372-.06-.678-.09-.918-.09-.9 0-1.71.156-2.43.468s-1.344.756-1.872 1.332c-.516.576-.912 1.26-1.188 2.052-.276.78-.414 1.638-.414 2.574 0 .876.12 1.698.36 2.466.252.768.624 1.44 1.116 2.016s1.098 1.026 1.818 1.35c.732.324 1.572.486 2.52.486.336 0 .708-.036 1.116-.108.42-.06.834-.15 1.242-.27s.768-.258 1.08-.414l-.882-1.728c-.372.156-.78.288-1.224.396s-.924.162-1.44.162c-.528 0-.996-.114-1.404-.342s-.75-.546-1.026-.954c-.264-.408-.474-.876-.63-1.404-.144-.528-.216-1.086-.216-1.674 0-.936.15-1.728.45-2.376.3-.66.708-1.17 1.224-1.53s1.092-.54 1.728-.54c.36 0 .666.024.918.072s.51.108.774.18c.264.06.564.144.9.252zm3.158 9.09c0-.312.108-.594.324-.846s.528-.378.936-.378h1.764v1.332c-.3.288-.618.504-.954.648-.324.144-.648.216-.972.216-.216 0-.408-.042-.576-.126-.156-.096-.282-.216-.378-.36-.096-.156-.144-.318-.144-.486zm-.936-3.618c.324-.144.726-.276 1.206-.396s.924-.18 1.332-.18c.432 0 .768.126 1.008.378.252.24.384.576.396 1.008v.018h-1.71c-.984.012-1.782.258-2.394.738-.612.468-.918 1.152-.918 2.052 0 .84.258 1.524.774 2.052.516.516 1.308.774 2.376.774.432 0 .84-.108 1.224-.324.396-.216.756-.492 1.08-.828l.396.936h1.53v-5.742c0-.624-.174-1.176-.522-1.656-.336-.492-.792-.876-1.368-1.152s-1.212-.414-1.908-.414c-.24 0-.57.036-.99.108-.408.072-.81.168-1.206.288-.396.108-.708.24-.936.396zm10.709 6.228v-12.708l-2.322.198v12.51zm6.278.216c-.948 0-1.77-.186-2.466-.558s-1.236-.9-1.62-1.584c-.384-.696-.576-1.506-.576-2.43.012-.936.204-1.746.576-2.43.384-.696.924-1.23 1.62-1.602.708-.384 1.53-.576 2.466-.576.96 0 1.782.186 2.466.558.696.372 1.236.9 1.62 1.584s.576 1.494.576 2.43c0 .924-.192 1.734-.576 2.43s-.924 1.236-1.62 1.62c-.696.372-1.518.558-2.466.558zm.018-1.998c.444 0 .828-.114 1.152-.342.336-.228.6-.54.792-.936s.288-.84.288-1.332c0-.504-.096-.948-.288-1.332s-.456-.684-.792-.9c-.336-.228-.726-.342-1.17-.342-.432 0-.822.114-1.17.342-.336.228-.6.54-.792.936-.192.384-.288.828-.288 1.332s.096.948.288 1.332.462.69.81.918c.348.216.738.324 1.17.324zm8.413 1.782v-5.328c.336-.3.69-.564 1.062-.792.384-.228.75-.408 1.098-.54s.66-.198.936-.198l-.468-1.872c-.312 0-.654.078-1.026.234-.36.156-.714.348-1.062.576-.348.216-.642.432-.882.648l-.774-1.458h-1.224v8.73zm6.627 0v-8.73h-2.358v8.73zm-1.188-9.954c.36 0 .666-.126.918-.378.252-.264.378-.582.378-.954s-.132-.684-.396-.936c-.252-.252-.558-.378-.918-.378s-.666.126-.918.378-.378.564-.378.936.126.69.378.954c.252.252.564.378.936.378zm10.985 6.282v-.72c0-.828-.144-1.59-.432-2.286-.276-.696-.708-1.248-1.296-1.656-.588-.42-1.338-.63-2.25-.63-.9 0-1.68.192-2.34.576-.66.372-1.17.906-1.53 1.602-.348.684-.522 1.494-.522 2.43 0 .924.186 1.734.558 2.43.372.684.93 1.212 1.674 1.584.756.372 1.698.558 2.826.558.504 0 .948-.048 1.332-.144.396-.084.75-.204 1.062-.36.324-.168.618-.36.882-.576l-.684-1.692c-.384.228-.774.414-1.17.558s-.852.216-1.368.216c-.576 0-1.044-.078-1.404-.234s-.636-.372-.828-.648c-.192-.288-.324-.624-.396-1.008zm-5.868-1.566c.072-.384.192-.702.36-.954s.378-.444.63-.576.534-.198.846-.198.588.066.828.198c.252.12.462.306.63.558s.288.576.36.972zm6.797 4.554c.276.204.6.378.972.522.384.132.762.228 1.134.288s.678.09.918.09c1.188 0 2.088-.24 2.7-.72.624-.48.936-1.146.936-1.998 0-.516-.15-.96-.45-1.332-.288-.384-.66-.714-1.116-.99-.444-.276-.912-.492-1.404-.648-.3-.108-.606-.228-.918-.36-.3-.144-.444-.306-.432-.486 0-.204.096-.378.288-.522.204-.156.456-.234.756-.234.396 0 .774.054 1.134.162s.75.252 1.17.432l.702-1.566c-.288-.204-.618-.372-.99-.504s-.738-.234-1.098-.306c-.348-.072-.648-.108-.9-.108-1.056 0-1.89.24-2.502.72-.6.468-.9 1.116-.9 1.944 0 .48.144.894.432 1.242.3.348.672.642 1.116.882.456.228.906.42 1.35.576.336.096.612.204.828.324.228.12.402.252.522.396.12.132.18.282.18.45s-.084.312-.252.432c-.156.108-.342.192-.558.252-.216.048-.426.072-.63.072-.216 0-.45-.024-.702-.072-.24-.048-.492-.114-.756-.198-.264-.096-.54-.198-.828-.306zm17.703.684c.648 0 1.236-.078 1.764-.234.54-.168 1.002-.408 1.386-.72s.672-.69.864-1.134c.204-.444.306-.948.306-1.512 0-.756-.18-1.38-.54-1.872-.348-.492-.798-.882-1.35-1.17.336-.264.642-.576.918-.936.276-.372.414-.786.414-1.242 0-.828-.174-1.488-.522-1.98-.336-.504-.81-.87-1.422-1.098-.6-.228-1.296-.342-2.088-.342h-4.752v12.24zm-.612-10.296c.396 0 .732.048 1.008.144.288.084.504.24.648.468.156.216.234.516.234.9 0 .348-.096.636-.288.864s-.462.396-.81.504c-.336.108-.72.162-1.152.162h-1.728v-3.042zm.594 4.932c.576 0 1.038.156 1.386.468.348.3.522.738.522 1.314 0 .348-.09.648-.27.9-.168.24-.408.426-.72.558-.3.132-.66.198-1.08.198h-2.52v-3.438zm11.644-3.366v6.048c-.192.144-.414.294-.666.45-.24.156-.504.288-.792.396-.276.108-.57.162-.882.162-.384 0-.69-.144-.918-.432s-.342-.708-.342-1.26v-5.364h-2.34v5.472c0 .672.084 1.278.252 1.818.168.528.468.948.9 1.26s1.044.468 1.836.468c.312 0 .654-.054 1.026-.162.384-.096.774-.228 1.17-.396.408-.18.798-.402 1.17-.666l.378.936h1.548v-8.73zm6.685 8.73v-5.328c.336-.3.69-.564 1.062-.792.384-.228.75-.408 1.098-.54s.66-.198.936-.198l-.468-1.872c-.312 0-.654.078-1.026.234-.36.156-.714.348-1.062.576-.348.216-.642.432-.882.648l-.774-1.458h-1.224v8.73zm6.61 0v-6.03c.204-.144.426-.3.666-.468.252-.168.522-.306.81-.414s.576-.162.864-.162c.384 0 .69.144.918.432s.342.714.342 1.278v5.364h2.34v-5.472c0-.672-.09-1.272-.27-1.8-.168-.54-.468-.966-.9-1.278-.42-.312-1.026-.468-1.818-.468-.312 0-.66.048-1.044.144-.372.084-.762.222-1.17.414-.396.18-.78.396-1.152.648l-.396-.918h-1.53v8.73zm15.702-3.672v-.72c0-.828-.144-1.59-.432-2.286-.276-.696-.708-1.248-1.296-1.656-.588-.42-1.338-.63-2.25-.63-.9 0-1.68.192-2.34.576-.66.372-1.17.906-1.53 1.602-.348.684-.522 1.494-.522 2.43 0 .924.186 1.734.558 2.43.372.684.93 1.212 1.674 1.584.756.372 1.698.558 2.826.558.504 0 .948-.048 1.332-.144.396-.084.75-.204 1.062-.36.324-.168.618-.36.882-.576l-.684-1.692c-.384.228-.774.414-1.17.558s-.852.216-1.368.216c-.576 0-1.044-.078-1.404-.234s-.636-.372-.828-.648c-.192-.288-.324-.624-.396-1.008zm-5.868-1.566c.072-.384.192-.702.36-.954s.378-.444.63-.576.534-.198.846-.198.588.066.828.198c.252.12.462.306.63.558s.288.576.36.972zm13.098 3.6 1.116 1.638h1.224v-12.708l-2.34.198zm.486-1.296c-.42.384-.816.672-1.188.864-.36.192-.744.288-1.152.288-.42 0-.792-.108-1.116-.324-.312-.228-.552-.534-.72-.918-.156-.384-.234-.822-.234-1.314 0-.516.078-.966.234-1.35.168-.396.408-.708.72-.936s.69-.342 1.134-.342c.396 0 .774.09 1.134.27.372.168.774.486 1.206.954l.648-1.584c-.18-.276-.438-.54-.774-.792-.324-.252-.69-.456-1.098-.612-.396-.156-.78-.234-1.152-.234-.936 0-1.74.198-2.412.594-.66.384-1.17.924-1.53 1.62-.348.684-.522 1.488-.522 2.412 0 .912.174 1.71.522 2.394.36.684.87 1.218 1.53 1.602.66.372 1.44.558 2.34.558.42 0 .81-.066 1.17-.198.372-.132.72-.318 1.044-.558.324-.252.618-.54.882-.864z" fill="#4f5358"/><path d="m87.3846 108h-3.0769c-.612 0-1.199-.248-1.6318-.688-.4328-.441-.6759-1.039-.6759-1.662v-14.1c0-.6233.2431-1.221.6759-1.6617s1.0198-.6883 1.6318-.6883h3.0769c.6121 0 1.199.2476 1.6318.6883s.6759 1.0384.6759 1.6617v14.1c0 .623-.2431 1.221-.6759 1.662-.4328.44-1.0197.688-1.6318.688zm21.5384 0h-3.077c-.612 0-1.199-.248-1.632-.688-.432-.441-.676-1.039-.676-1.662v-23.5c0-.6233.244-1.221.676-1.6617.433-.4407 1.02-.6883 1.632-.6883h3.077c.612 0 1.199.2476 1.632.6883s.676 1.0384.676 1.6617v23.5c0 .623-.243 1.221-.676 1.662-.433.44-1.02.688-1.632.688zm10.769 0h-3.077c-.612 0-1.199-.248-1.631-.688-.433-.441-.676-1.039-.676-1.662v-34.4667c0-.6232.243-1.221.676-1.6617.432-.4407 1.019-.6883 1.631-.6883h3.077c.612 0 1.199.2476 1.632.6883s.676 1.0385.676 1.6617v34.4667c0 .623-.243 1.221-.676 1.662-.433.44-1.02.688-1.632.688zm-21.5382 0h-3.0769c-.612 0-1.199-.248-1.6318-.688-.4327-.441-.6759-1.039-.6759-1.662v-42.3c0-.6233.2432-1.221.6759-1.6617.4328-.4407 1.0198-.6883 1.6318-.6883h3.0769c.6121 0 1.1991.2476 1.6318.6883.4324.4407.6764 1.0384.6764 1.6617v42.3c0 .623-.244 1.221-.6764 1.662-.4327.44-1.0197.688-1.6318.688z" fill="#fd3d0c"/></g></svg>