<svg fill="none" height="270" viewBox="0 0 255 270" width="255" xmlns="http://www.w3.org/2000/svg" xmlns:xlink="http://www.w3.org/1999/xlink"><filter id="a" color-interpolation-filters="sRGB" filterUnits="userSpaceOnUse" height="270" width="255" x="0" y="0"><feFlood flood-opacity="0" result="BackgroundImageFix"/><feColorMatrix in="SourceAlpha" result="hardAlpha" type="matrix" values="0 0 0 0 0 0 0 0 0 0 0 0 0 0 0 0 0 0 127 0"/><feOffset dy="30"/><feGaussianBlur stdDeviation="30"/><feComposite in2="hardAlpha" operator="out"/><feColorMatrix type="matrix" values="0 0 0 0 0 0 0 0 0 0 0 0 0 0 0 0 0 0 0.4 0"/><feBlend in2="BackgroundImageFix" mode="normal" result="effect1_dropShadow_6_16"/><feBlend in="SourceGraphic" in2="effect1_dropShadow_6_16" mode="normal" result="shape"/></filter><g filter="url(#a)"><rect fill="#141b22" height="150" rx="10" width="135" x="60" y="30"/><path d="m86.094 154c-.1467 0-.2787-.051-.396-.154-.1027-.117-.154-.249-.154-.396v-10.472l-3.014 2.31c-.132.103-.2713.139-.418.11-.132-.029-.2493-.11-.352-.242l-1.298-1.694c-.088-.132-.1247-.271-.11-.418.0293-.161.1173-.286.264-.374l5.06-3.916c.088-.059.1687-.095.242-.11.088-.029.1833-.044.286-.044h2.75c.1613 0 .2933.051.396.154s.154.235.154.396v14.3c0 .147-.0513.279-.154.396-.1027.103-.2347.154-.396.154zm12.2995.22c-1.056 0-1.9726-.147-2.75-.44-.7626-.308-1.4006-.726-1.914-1.254-.5133-.528-.902-1.144-1.166-1.848s-.418-1.459-.462-2.266c-.0146-.396-.0293-.843-.044-1.342 0-.513 0-1.027 0-1.54.0147-.528.0294-.997.044-1.408.044-.807.198-1.555.462-2.244.2787-.704.6747-1.313 1.188-1.826.528-.528 1.1734-.939 1.936-1.232.7774-.293 1.6794-.44 2.706-.44 1.0414 0 1.9435.147 2.7065.44.777.293 1.422.704 1.936 1.232.513.513.909 1.122 1.188 1.826.278.689.44 1.437.484 2.244.014.411.022.88.022 1.408.014.513.014 1.027 0 1.54 0 .499-.008.946-.022 1.342-.044.807-.206 1.562-.484 2.266-.264.704-.653 1.32-1.166 1.848-.499.528-1.137.946-1.914 1.254-.763.293-1.6798.44-2.7505.44zm0-3.19c.7627 0 1.3127-.242 1.6505-.726.352-.499.535-1.166.55-2.002.029-.425.044-.873.044-1.342.014-.469.014-.939 0-1.408 0-.469-.015-.902-.044-1.298-.015-.807-.198-1.459-.55-1.958-.3378-.499-.8878-.755-1.6505-.77-.748.015-1.298.271-1.65.77-.3373.499-.5206 1.151-.55 1.958 0 .396-.0073.829-.022 1.298v1.408c.0147.469.022.917.022 1.342.0294.836.22 1.503.572 2.002.352.484.8947.726 1.628.726zm14.9535 3.19c-1.056 0-1.973-.147-2.75-.44-.763-.308-1.401-.726-1.914-1.254-.514-.528-.902-1.144-1.166-1.848s-.418-1.459-.462-2.266c-.015-.396-.03-.843-.044-1.342 0-.513 0-1.027 0-1.54.014-.528.029-.997.044-1.408.044-.807.198-1.555.462-2.244.278-.704.674-1.313 1.188-1.826.528-.528 1.173-.939 1.936-1.232.777-.293 1.679-.44 2.706-.44 1.041 0 1.943.147 2.706.44.777.293 1.422.704 1.936 1.232.513.513.909 1.122 1.188 1.826.278.689.44 1.437.484 2.244.014.411.022.88.022 1.408.014.513.014 1.027 0 1.54 0 .499-.008.946-.022 1.342-.044.807-.206 1.562-.484 2.266-.264.704-.653 1.32-1.166 1.848-.499.528-1.137.946-1.914 1.254-.763.293-1.68.44-2.75.44zm0-3.19c.762 0 1.312-.242 1.65-.726.352-.499.535-1.166.55-2.002.029-.425.044-.873.044-1.342.014-.469.014-.939 0-1.408 0-.469-.015-.902-.044-1.298-.015-.807-.198-1.459-.55-1.958-.338-.499-.888-.755-1.65-.77-.748.015-1.298.271-1.65.77-.338.499-.521 1.151-.55 1.958 0 .396-.008.829-.022 1.298v1.408c.014.469.022.917.022 1.342.029.836.22 1.503.572 2.002.352.484.894.726 1.628.726zm20.472 3.19c-.806 0-1.488-.139-2.046-.418-.557-.279-1.012-.631-1.364-1.056v.704c0 .147-.058.279-.176.396-.102.103-.227.154-.374.154h-2.486c-.161 0-.293-.051-.396-.154-.102-.117-.154-.249-.154-.396v-14.52c0-.161.052-.293.154-.396.103-.103.235-.154.396-.154h2.684c.162 0 .294.051.396.154.103.103.154.235.154.396v4.708c.367-.381.814-.689 1.342-.924.528-.249 1.152-.374 1.87-.374.734 0 1.379.125 1.936.374.572.235 1.056.579 1.452 1.034.396.44.704.983.924 1.628.22.631.345 1.335.374 2.112.015.293.022.557.022.792 0 .22-.007.477-.022.77-.029.821-.154 1.555-.374 2.2-.22.631-.535 1.173-.946 1.628-.396.44-.872.777-1.43 1.012-.557.22-1.202.33-1.936.33zm-1.188-2.948c.499 0 .888-.103 1.166-.308.279-.205.477-.484.594-.836.132-.352.213-.741.242-1.166.03-.455.03-.909 0-1.364-.029-.425-.11-.814-.242-1.166-.117-.352-.315-.631-.594-.836-.278-.205-.667-.308-1.166-.308-.454 0-.828.103-1.122.308-.293.191-.513.447-.66.77-.146.308-.227.645-.242 1.012-.014.279-.022.55-.022.814s.008.543.022.836c.03.396.11.763.242 1.1s.345.616.638.836c.294.205.675.308 1.144.308zm8.621 6.908c-.161 0-.293-.059-.396-.176-.102-.103-.154-.227-.154-.374v-14.52c0-.161.052-.293.154-.396.103-.103.235-.154.396-.154h2.486c.147 0 .272.051.374.154.118.103.176.235.176.396v.792c.352-.44.807-.807 1.364-1.1.558-.308 1.24-.462 2.046-.462.734 0 1.379.117 1.936.352.558.22 1.034.55 1.43.99.411.44.726.975.946 1.606s.345 1.357.374 2.178c.015.293.022.565.022.814s-.007.521-.022.814c-.029.792-.154 1.503-.374 2.134s-.528 1.166-.924 1.606-.88.785-1.452 1.034c-.557.235-1.202.352-1.936.352-.718 0-1.349-.125-1.892-.374-.528-.264-.968-.631-1.32-1.1v4.884c0 .147-.051.271-.154.374-.102.117-.234.176-.396.176zm5.258-6.908c.499 0 .888-.103 1.166-.308.279-.205.477-.484.594-.836.132-.352.213-.741.242-1.166.03-.455.03-.909 0-1.364-.029-.425-.11-.814-.242-1.166-.117-.352-.315-.631-.594-.836-.278-.205-.667-.308-1.166-.308-.469 0-.85.11-1.144.33-.293.205-.506.477-.638.814s-.212.704-.242 1.1c-.014.279-.022.55-.022.814s.008.543.022.836c.015.367.096.711.242 1.034.147.308.367.565.66.77.294.191.668.286 1.122.286zm8.621 2.728c-.161 0-.293-.051-.396-.154-.102-.117-.154-.249-.154-.396v-10.34c0-.161.052-.293.154-.396.103-.103.235-.154.396-.154h2.398c.162 0 .294.051.396.154.103.103.154.235.154.396v.748c.294-.396.704-.741 1.232-1.034.528-.308 1.152-.469 1.87-.484 1.702-.044 2.868.587 3.498 1.892.338-.557.814-1.012 1.43-1.364.631-.352 1.32-.528 2.068-.528.763 0 1.445.176 2.046.528.616.337 1.108.865 1.474 1.584.367.704.55 1.621.55 2.75v6.248c0 .147-.051.279-.154.396-.102.103-.234.154-.396.154h-2.552c-.161 0-.3-.051-.418-.154-.102-.117-.154-.249-.154-.396v-6.094c0-.513-.073-.917-.22-1.21-.146-.308-.344-.528-.594-.66-.249-.132-.535-.198-.858-.198-.264 0-.528.066-.792.198-.249.132-.454.352-.616.66-.146.293-.22.697-.22 1.21v6.094c0 .147-.051.279-.154.396-.102.103-.234.154-.396.154h-2.552c-.161 0-.293-.051-.396-.154-.102-.117-.154-.249-.154-.396v-6.094c0-.513-.08-.917-.242-1.21-.161-.308-.366-.528-.616-.66-.249-.132-.52-.198-.814-.198-.278 0-.55.066-.814.198-.249.132-.454.352-.616.66-.146.293-.22.689-.22 1.188v6.116c0 .147-.058.279-.176.396-.102.103-.227.154-.374.154z" fill="#fff"/><path d="m90.998 116v-12.24h-2.322v5.184h-4.824v-5.274l-2.322.09v12.24h2.322v-5.184h4.824v5.184zm10.355-3.672v-.72c0-.828-.144-1.59-.432-2.286-.276-.696-.708-1.248-1.2958-1.656-.588-.42-1.338-.63-2.25-.63-.9 0-1.68.192-2.34.576-.66.372-1.17.906-1.53 1.602-.348.684-.522 1.494-.522 2.43 0 .924.186 1.734.558 2.43.372.684.93 1.212 1.674 1.584.756.372 1.698.558 2.826.558.504 0 .948-.048 1.332-.144.396-.084.7498-.204 1.0618-.36.324-.168.618-.36.882-.576l-.684-1.692c-.384.228-.7738.414-1.1698.558s-.852.216-1.368.216c-.576 0-1.044-.078-1.404-.234s-.636-.372-.828-.648c-.192-.288-.324-.624-.396-1.008zm-5.8678-1.566c.072-.384.192-.702.36-.954s.378-.444.63-.576.534-.198.846-.198.588.066.828.198c.252.12.462.306.63.558s.288.576.36.972zm9.0838 2.628c0-.312.108-.594.324-.846s.528-.378.936-.378h1.764v1.332c-.3.288-.618.504-.954.648-.324.144-.648.216-.972.216-.216 0-.408-.042-.576-.126-.156-.096-.282-.216-.378-.36-.096-.156-.144-.318-.144-.486zm-.936-3.618c.324-.144.726-.276 1.206-.396s.924-.18 1.332-.18c.432 0 .768.126 1.008.378.252.24.384.576.396 1.008v.018h-1.71c-.984.012-1.782.258-2.394.738-.612.468-.918 1.152-.918 2.052 0 .84.258 1.524.774 2.052.516.516 1.308.774 2.376.774.432 0 .84-.108 1.224-.324.396-.216.756-.492 1.08-.828l.396.936h1.53v-5.742c0-.624-.174-1.176-.522-1.656-.336-.492-.792-.876-1.368-1.152s-1.212-.414-1.908-.414c-.24 0-.57.036-.99.108-.408.072-.81.168-1.206.288-.396.108-.708.24-.936.396zm10.547 6.228v-5.328c.336-.3.69-.564 1.062-.792.384-.228.75-.408 1.098-.54s.66-.198.936-.198l-.468-1.872c-.312 0-.654.078-1.026.234-.36.156-.714.348-1.062.576-.348.216-.642.432-.882.648l-.774-1.458h-1.224v8.73zm8.535-8.694h-1.584v-2.502l-2.322.414v2.088h-1.17l-.018 1.764h1.188v4.14c0 .672.144 1.242.432 1.71s.684.828 1.188 1.08c.516.24 1.134.36 1.854.36.192 0 .402-.03.63-.09.228-.048.444-.114.648-.198.204-.072.366-.156.486-.252l-.684-1.692c-.168.072-.33.126-.486.162s-.312.054-.468.054c-.42 0-.738-.144-.954-.432s-.324-.66-.324-1.116v-3.726h2.304zm10.934-1.602c.516 0 .954.066 1.314.198s.636.342.828.63c.204.276.306.642.306 1.098 0 .432-.108.78-.324 1.044-.204.252-.486.444-.846.576s-.774.198-1.242.198h-1.476v-3.744zm-3.762-1.944v12.24h2.322v-4.644h1.08c.18 0 .36.006.54.018.192 0 .384-.006.576-.018l2.592 4.644h2.484l-2.988-5.274c.6-.288 1.092-.702 1.476-1.242.396-.552.594-1.206.594-1.962 0-.864-.222-1.572-.666-2.124-.432-.552-1.014-.96-1.746-1.224-.732-.276-1.548-.414-2.448-.414zm12.545 9.63c0-.312.108-.594.324-.846s.528-.378.936-.378h1.764v1.332c-.3.288-.618.504-.954.648-.324.144-.648.216-.972.216-.216 0-.408-.042-.576-.126-.156-.096-.282-.216-.378-.36-.096-.156-.144-.318-.144-.486zm-.936-3.618c.324-.144.726-.276 1.206-.396s.924-.18 1.332-.18c.432 0 .768.126 1.008.378.252.24.384.576.396 1.008v.018h-1.71c-.984.012-1.782.258-2.394.738-.612.468-.918 1.152-.918 2.052 0 .84.258 1.524.774 2.052.516.516 1.308.774 2.376.774.432 0 .84-.108 1.224-.324.396-.216.756-.492 1.08-.828l.396.936h1.53v-5.742c0-.624-.174-1.176-.522-1.656-.336-.492-.792-.876-1.368-1.152s-1.212-.414-1.908-.414c-.24 0-.57.036-.99.108-.408.072-.81.168-1.206.288-.396.108-.708.24-.936.396zm12.473-2.466h-1.584v-2.502l-2.322.414v2.088h-1.17l-.018 1.764h1.188v4.14c0 .672.144 1.242.432 1.71s.684.828 1.188 1.08c.516.24 1.134.36 1.854.36.192 0 .402-.03.63-.09.228-.048.444-.114.648-.198.204-.072.366-.156.486-.252l-.684-1.692c-.168.072-.33.126-.486.162s-.312.054-.468.054c-.42 0-.738-.144-.954-.432s-.324-.66-.324-1.116v-3.726h2.304zm10.419 5.022v-.72c0-.828-.144-1.59-.432-2.286-.276-.696-.708-1.248-1.296-1.656-.588-.42-1.338-.63-2.25-.63-.9 0-1.68.192-2.34.576-.66.372-1.17.906-1.53 1.602-.348.684-.522 1.494-.522 2.43 0 .924.186 1.734.558 2.43.372.684.93 1.212 1.674 1.584.756.372 1.698.558 2.826.558.504 0 .948-.048 1.332-.144.396-.084.75-.204 1.062-.36.324-.168.618-.36.882-.576l-.684-1.692c-.384.228-.774.414-1.17.558s-.852.216-1.368.216c-.576 0-1.044-.078-1.404-.234s-.636-.372-.828-.648c-.192-.288-.324-.624-.396-1.008zm-5.868-1.566c.072-.384.192-.702.36-.954s.378-.444.63-.576.534-.198.846-.198.588.066.828.198c.252.12.462.306.63.558s.288.576.36.972z" fill="#3d4549"/><path d="m98.2822 83.75c-.5645-.0007-1.1157-.1713-1.582-.4896-6.9073-4.6889-9.8982-7.904-11.548-9.914-3.5156-4.2847-5.1987-8.6836-5.1512-13.4473.0553-5.4589 4.4349-9.8991 9.7629-9.8991 3.8742 0 6.5575 2.1823 8.1202 3.9999.0495.057.1106.1027.1793.134s.1433.0476.2188.0476.1501-.0163.2188-.0476.1299-.077.1794-.134c1.5626-1.8193 4.2456-3.9999 8.1206-3.9999 5.328 0 9.707 4.4402 9.762 9.9.048 4.7646-1.637 9.1635-5.151 13.4473-1.649 2.01-4.64 5.2251-11.5477 9.914-.4664.318-1.0176.4882-1.5821.4887z" fill="#f44336"/></g></svg>